<?xml version="1.0" encoding="UTF-8"?>
<!DOCTYPE svg PUBLIC "-//W3C//DTD SVG 1.1//EN" "http://www.w3.org/Graphics/SVG/1.1/DTD/svg11.dtd">
<!-- Creator: CorelDRAW -->
<svg xmlns="http://www.w3.org/2000/svg" xml:space="preserve" width="117.111mm" height="15.8912mm" style="shape-rendering:geometricPrecision; text-rendering:geometricPrecision; image-rendering:optimizeQuality; fill-rule:evenodd; clip-rule:evenodd"
viewBox="0 0 95.1653 12.9133"
 xmlns:xlink="http://www.w3.org/1999/xlink">
 <defs>
  <style type="text/css">
   <![CDATA[
    .fil0 {fill:#72706F}
    .fil1 {fill:#72706F;fill-rule:nonzero}
    .fil2 {fill:#AAA9A9;fill-rule:nonzero}
   ]]>
  </style>
 </defs>
 <g id="Layer_x0020_1">
  <metadata id="CorelCorpID_0Corel-Layer"/>
  <g id="_130554416">
   <g>
    <path id="_130473784" class="fil0" d="M1.6227 10.8729c-4.88857,-5.92351 2.78034,-4.85908 3.11473,-7.58302 0.199739,-1.62774 -1.8729,-1.75393 -2.34308,-1.68007 1.31691,-1.45782 4.92295,-0.995202 5.09522,1.90792 0.172273,2.90313 -3.98211,2.60904 -5.29561,4.26676 -0.697868,0.880705 -0.780836,2.04339 -0.571264,3.0884z"/>
    <path id="_130470496" class="fil0" d="M4.82641 10.0441c-1.50958,0.640823 -0.582559,2.49893 -0.283519,2.86924 -1.92093,-0.411668 -3.32341,-3.76587 -0.895332,-5.36663 2.42816,-1.60076 4.25059,2.14407 6.34306,2.45278 1.11165,0.163984 2.16,-0.345521 2.96025,-1.04948 -2.73605,7.19557 -5.57108,0.0101576 -8.12446,1.0941z"/>
    <path id="_130374032" class="fil0" d="M13.2578 5.40076c-0.171135,0.444172 -1.31683,2.17592 -2.6266,1.18917 -2.14756,-1.61807 2.53331,-6.57628 -3.89955,-6.58993 -0.36348,-0.000812609 -0.720134,0.0279537 -1.06761,0.0832924 1.00991,0.340971 1.93271,1.01186 2.34649,2.05655 0.778886,1.96643 -1.55306,5.41718 1.04729,6.71962 2.60035,1.30237 4.80398,-1.5893 4.19997,-3.45871z"/>
   </g>
   <path id="_130373912" class="fil1" d="M19.8344 8.88133c-0.091256,0.0608644 -0.268161,0.138875 -0.530634,0.23395 -0.262473,0.0951565 -0.568664,0.142694 -0.918654,0.142694 -0.357548,0 -0.694212,-0.0570451 -1.00999,-0.171217 -0.315699,-0.11409 -0.591498,-0.290995 -0.827317,-0.530634 -0.2359,-0.239638 -0.422313,-0.538272 -0.559237,-0.89582 -0.136925,-0.357629 -0.205427,-0.78368 -0.205427,-1.27815 0,-0.433689 0.0646837,-0.831218 0.194051,-1.19258 0.129286,-0.361367 0.317649,-0.673328 0.564844,-0.9358 0.247277,-0.262473 0.54973,-0.4679 0.907278,-0.616282 0.357548,-0.148301 0.760846,-0.222492 1.20965,-0.222492 0.494554,0 0.926293,0.0361611 1.2953,0.108402 0.369006,0.0723222 0.679016,0.138875 0.930112,0.199739l0 5.2952c0,0.912885 -0.2359,1.57484 -0.707538,1.98569 -0.471719,0.410774 -1.1869,0.616201 -2.14553,0.616201 -0.372744,0 -0.724603,-0.0303916 -1.05558,-0.091256 -0.330976,-0.0608644 -0.618151,-0.133187 -0.861609,-0.216885l0.19397 -0.924342c0.213066,0.0836987 0.47367,0.15789 0.78173,0.222492 0.308141,0.0646837 0.629609,0.0970255 0.964323,0.0970255 0.631478,0 1.08605,-0.125548 1.36372,-0.376563 0.27775,-0.251096 0.416543,-0.650493 0.416543,-1.19827l0 -0.251096zm-0.0113765 -4.40499c-0.106533,-0.0304728 -0.249146,-0.0589954 -0.42792,-0.085649 -0.178855,-0.0265723 -0.420363,-0.0398991 -0.724684,-0.0398991 -0.570614,0 -1.00999,0.186412 -1.31813,0.559156 -0.30806,0.372825 -0.462131,0.867297 -0.462131,1.48358 0,0.342352 0.0437184,0.635298 0.131236,0.878755 0.0874367,0.243458 0.205427,0.445066 0.353729,0.604825 0.148382,0.159759 0.319518,0.277668 0.513569,0.353729 0.19397,0.0761414 0.393709,0.114172 0.599136,0.114172 0.281488,0 0.540141,-0.0399804 0.776041,-0.11986 0.235819,-0.0798794 0.422232,-0.173086 0.559156,-0.279619l0 -3.46919z"/>
   <path id="_1303739121" class="fil1" d="M27.9485 6.50761c0,0.471719 -0.0685029,0.89777 -0.205427,1.27815 -0.137006,0.380463 -0.329107,0.707538 -0.576302,0.981469 -0.247277,0.273849 -0.542091,0.484965 -0.884443,0.633347 -0.342352,0.148382 -0.715177,0.222574 -1.11839,0.222574 -0.403216,0 -0.776041,-0.0741912 -1.11839,-0.222574 -0.342352,-0.148382 -0.637167,-0.359498 -0.884443,-0.633347 -0.247277,-0.27393 -0.439378,-0.601005 -0.576302,-0.981469 -0.136925,-0.380382 -0.205427,-0.806433 -0.205427,-1.27815 0,-0.464081 0.0685029,-0.888181 0.205427,-1.27238 0.136925,-0.384201 0.329025,-0.713308 0.576302,-0.987157 0.247277,-0.27393 0.542091,-0.485046 0.884443,-0.633347 0.342352,-0.148382 0.715177,-0.222574 1.11839,-0.222574 0.403216,0 0.776041,0.0741912 1.11839,0.222574 0.342352,0.148301 0.637167,0.359417 0.884443,0.633347 0.247196,0.273849 0.439296,0.602956 0.576302,0.987157 0.136925,0.384201 0.205427,0.808302 0.205427,1.27238zm-1.10702 0c0,-0.669508 -0.150251,-1.20014 -0.450754,-1.59198 -0.300503,-0.391759 -0.709489,-0.587679 -1.2268,-0.587679 -0.517388,0 -0.926293,0.19592 -1.2268,0.587679 -0.300503,0.39184 -0.450754,0.922473 -0.450754,1.59198 0,0.669508 0.150251,1.20022 0.450754,1.59198 0.300503,0.39184 0.709407,0.58776 1.2268,0.58776 0.517307,0 0.926293,-0.19592 1.2268,-0.58776 0.300503,-0.391759 0.450754,-0.922473 0.450754,-1.59198z"/>
   <path id="_13037391212" class="fil1" d="M31.2237 9.58886c-0.654313,-0.0151958 -1.11839,-0.15594 -1.39224,-0.422232 -0.27393,-0.266292 -0.410855,-0.680885 -0.410855,-1.24386l0 -7.12113 1.06135 -0.182593 0 7.13251c0,0.174955 0.0151958,0.319518 0.0455874,0.433689 0.0304728,0.11409 0.0799607,0.205346 0.148382,0.273849 0.0685029,0.0685029 0.159759,0.11986 0.27393,0.154071 0.11409,0.0342108 0.254834,0.0627334 0.422232,0.0855677l-0.148382 0.890132z"/>
   <path id="_130373912123" class="fil1" d="M37.797 6.50761c0,0.471719 -0.0685029,0.89777 -0.205427,1.27815 -0.137006,0.380463 -0.329107,0.707538 -0.576302,0.981469 -0.247277,0.273849 -0.542091,0.484965 -0.884443,0.633347 -0.342352,0.148382 -0.715177,0.222574 -1.11839,0.222574 -0.403216,0 -0.776041,-0.0741912 -1.11839,-0.222574 -0.342352,-0.148382 -0.637167,-0.359498 -0.884443,-0.633347 -0.247277,-0.27393 -0.439378,-0.601005 -0.576302,-0.981469 -0.136925,-0.380382 -0.205427,-0.806433 -0.205427,-1.27815 0,-0.464081 0.0685029,-0.888181 0.205427,-1.27238 0.136925,-0.384201 0.329025,-0.713308 0.576302,-0.987157 0.247277,-0.27393 0.542091,-0.485046 0.884443,-0.633347 0.342352,-0.148382 0.715177,-0.222574 1.11839,-0.222574 0.403216,0 0.776041,0.0741912 1.11839,0.222574 0.342352,0.148301 0.637167,0.359417 0.884443,0.633347 0.247196,0.273849 0.439296,0.602956 0.576302,0.987157 0.136925,0.384201 0.205427,0.808302 0.205427,1.27238zm-1.10702 0c0,-0.669508 -0.150251,-1.20014 -0.450754,-1.59198 -0.300503,-0.391759 -0.709489,-0.587679 -1.2268,-0.587679 -0.517388,0 -0.926293,0.19592 -1.2268,0.587679 -0.300503,0.39184 -0.450754,0.922473 -0.450754,1.59198 0,0.669508 0.150251,1.20022 0.450754,1.59198 0.300503,0.39184 0.709407,0.58776 1.2268,0.58776 0.517307,0 0.926293,-0.19592 1.2268,-0.58776 0.300503,-0.391759 0.450754,-0.922473 0.450754,-1.59198z"/>
   <path id="_1303739121234" class="fil1" d="M43.9252 3.54054c-0.296683,1.11075 -0.644724,2.17584 -1.0442,3.19534 -0.399397,1.0195 -0.785468,1.93246 -1.15829,2.7389l-0.958635 0c-0.372744,-0.806433 -0.758895,-1.7194 -1.15829,-2.7389 -0.399397,-1.0195 -0.747519,-2.08459 -1.0442,-3.19534l1.14123 0c0.091256,0.372744 0.199658,0.770272 0.325206,1.1925 0.125548,0.422313 0.258653,0.840725 0.399397,1.25532 0.140744,0.414674 0.283438,0.816022 0.428001,1.20404 0.144563,0.387939 0.281488,0.734111 0.410855,1.03843 0.129286,-0.304322 0.266211,-0.650493 0.410774,-1.03843 0.144563,-0.388021 0.287257,-0.789368 0.428001,-1.20404 0.140744,-0.414593 0.273849,-0.833005 0.399397,-1.25532 0.125548,-0.422232 0.23395,-0.81976 0.325206,-1.1925l1.09556 0z"/>
   <path id="_13037391212345" class="fil1" d="M47.1663 6.21093c0.228262,0.174955 0.469769,0.39184 0.724684,0.650493 0.254834,0.258653 0.50593,0.538272 0.753207,0.838775 0.247277,0.300503 0.481146,0.604825 0.70185,0.912966 0.220623,0.308141 0.407036,0.595317 0.559156,0.861609l-1.24394 0c-0.159759,-0.266292 -0.344221,-0.538272 -0.553468,-0.81594 -0.209247,-0.27775 -0.42792,-0.54396 -0.656182,-0.798876 -0.228262,-0.254834 -0.460262,-0.488784 -0.696162,-0.70185 -0.235819,-0.212985 -0.460262,-0.391759 -0.673246,-0.536322l0 2.85299 -1.06135 0 0 -8.67314 1.06135 -0.182593 0 5.40929c0.182593,-0.182593 0.384201,-0.384201 0.604825,-0.604825 0.220623,-0.220623 0.437427,-0.445066 0.650493,-0.673328 0.212985,-0.228262 0.414593,-0.446935 0.604825,-0.656182 0.19015,-0.209247 0.353729,-0.393709 0.490734,-0.553468l1.24386 0c-0.174955,0.19015 -0.365186,0.399397 -0.570614,0.627659 -0.205346,0.228262 -0.418412,0.458393 -0.639036,0.690392 -0.220623,0.232081 -0.443197,0.464081 -0.667639,0.696162 -0.224443,0.232 -0.435558,0.450754 -0.633347,0.656182z"/>
   <path id="_130373912123456" class="fil1" d="M52.9864 8.71019c0.251015,0 0.473588,-0.00568826 0.667558,-0.017146 0.194051,-0.0113765 0.355679,-0.0323418 0.485046,-0.0627334l0 -1.76889c-0.0760602,-0.0380301 -0.199739,-0.0703719 -0.370875,-0.0970255 -0.171217,-0.0265723 -0.378513,-0.0398991 -0.621971,-0.0398991 -0.159759,0 -0.329025,0.0113765 -0.507799,0.0342108 -0.178855,0.0228343 -0.342433,0.0703719 -0.490734,0.142613 -0.148382,0.0723222 -0.27198,0.171217 -0.370875,0.296765 -0.0989757,0.125548 -0.148382,0.290995 -0.148382,0.496423 0,0.380382 0.121729,0.644805 0.365186,0.793106 0.243458,0.148382 0.574433,0.222574 0.992845,0.222574zm-0.0913372 -5.31804c0.426051,0 0.785549,0.0551761 1.07849,0.165447 0.292864,0.110352 0.528765,0.266292 0.707538,0.4679 0.178774,0.201608 0.306191,0.441328 0.382251,0.718996 0.0761414,0.277668 0.114172,0.583941 0.114172,0.918654l0 3.70891c-0.0913372,0.0151958 -0.218754,0.0361611 -0.382332,0.0627334 -0.163578,0.0266536 -0.34804,0.0513569 -0.553468,0.0741912 -0.205427,0.0228343 -0.42792,0.0437996 -0.667639,0.0628147 -0.239638,0.019015 -0.477408,0.0285226 -0.713227,0.0285226 -0.334714,0 -0.642855,-0.0342921 -0.924342,-0.102714 -0.281488,-0.0685029 -0.524945,-0.176905 -0.730373,-0.325287 -0.205427,-0.148301 -0.365186,-0.344221 -0.479358,-0.587679 -0.11409,-0.243458 -0.171135,-0.536403 -0.171135,-0.878755 0,-0.327156 0.0665527,-0.608644 0.199658,-0.844463 0.133187,-0.235819 0.31383,-0.426051 0.542091,-0.570614 0.228262,-0.144563 0.494554,-0.251096 0.798876,-0.319518 0.304322,-0.0685029 0.62384,-0.102714 0.958553,-0.102714 0.106533,0 0.216885,0.00568826 0.330976,0.017146 0.114172,0.0113765 0.222574,0.0265723 0.325287,0.0455874 0.102714,0.019015 0.192101,0.0361611 0.268161,0.0513569 0.0760602,0.015277 0.129367,0.0266536 0.159759,0.0342921l0 -0.296765c0,-0.174955 -0.019015,-0.34804 -0.0570451,-0.519257 -0.0380301,-0.171135 -0.106533,-0.323337 -0.205427,-0.456442 -0.0988945,-0.133187 -0.23395,-0.239638 -0.405167,-0.319518 -0.171135,-0.0798794 -0.393709,-0.11986 -0.667558,-0.11986 -0.349991,0 -0.656182,0.0247033 -0.918654,0.0741912 -0.262473,0.0494066 -0.458393,0.100763 -0.58776,0.154071l-0.125548 -0.878755c0.137006,-0.0608644 0.365186,-0.119779 0.684785,-0.176905 0.319518,-0.0570451 0.665689,-0.0855677 1.03843,-0.0855677z"/>
   <path id="_1303739121234567" class="fil2" d="M58.1903 8.85849c0,0.205427 -0.0685029,0.384201 -0.205427,0.536403 -0.136925,0.15212 -0.323337,0.228262 -0.559156,0.228262 -0.2359,0 -0.422232,-0.0761414 -0.559237,-0.228262 -0.136925,-0.152202 -0.205427,-0.330976 -0.205427,-0.536403 0,-0.205346 0.0685029,-0.384201 0.205427,-0.536322 0.137006,-0.152202 0.323337,-0.228262 0.559237,-0.228262 0.235819,0 0.422232,0.0760602 0.559156,0.228262 0.136925,0.15212 0.205427,0.330976 0.205427,0.536322z"/>
   <path id="_13037391212345678" class="fil2" d="M62.3215 9.6117c-0.479358,0 -0.899639,-0.0760602 -1.26109,-0.228181 -0.361367,-0.152202 -0.665689,-0.365186 -0.912966,-0.639117 -0.247196,-0.273849 -0.431739,-0.599136 -0.553468,-0.975699 -0.121729,-0.376644 -0.182593,-0.793187 -0.182593,-1.24963 0,-0.456524 0.0666339,-0.874936 0.199739,-1.25532 0.133105,-0.380382 0.321468,-0.709489 0.564926,-0.987157 0.243458,-0.277668 0.54201,-0.494554 0.89582,-0.650493 0.353729,-0.15594 0.747438,-0.23395 1.18113,-0.23395 0.266292,0 0.532584,0.0228343 0.798876,0.0685029 0.266292,0.0455874 0.521126,0.11791 0.764584,0.216804l-0.239638 0.901589c-0.159759,-0.0761414 -0.344302,-0.137006 -0.553468,-0.182593 -0.209247,-0.0456686 -0.43182,-0.0685029 -0.667639,-0.0685029 -0.593448,0 -1.04802,0.186412 -1.36372,0.559156 -0.31578,0.372825 -0.473588,0.916785 -0.473588,1.63196 0,0.319518 0.0360798,0.612463 0.108402,0.878674 0.0722409,0.266292 0.186412,0.494554 0.342352,0.684785 0.15594,0.19015 0.355679,0.336664 0.599136,0.439378 0.243458,0.102632 0.540141,0.153989 0.890132,0.153989 0.281488,0 0.536403,-0.0265723 0.764584,-0.0798794 0.228262,-0.0532259 0.407036,-0.110271 0.536403,-0.171135l0.148301 0.890132c-0.0608644,0.0380301 -0.148301,0.0741912 -0.262473,0.108402 -0.11409,0.0342108 -0.243458,0.0646837 -0.387939,0.0913372 -0.144563,0.0265723 -0.298634,0.0494066 -0.462212,0.0684217 -0.163578,0.019015 -0.321468,0.0285226 -0.473588,0.0285226z"/>
   <path id="_130373912123456789" class="fil2" d="M70.2871 6.50761c0,0.471719 -0.0685029,0.89777 -0.205427,1.27815 -0.137006,0.380463 -0.329107,0.707538 -0.576302,0.981469 -0.247277,0.273849 -0.542091,0.484965 -0.884443,0.633347 -0.342352,0.148382 -0.715177,0.222574 -1.11839,0.222574 -0.403216,0 -0.776041,-0.0741912 -1.11839,-0.222574 -0.342352,-0.148382 -0.637167,-0.359498 -0.884443,-0.633347 -0.247277,-0.27393 -0.439378,-0.601005 -0.576302,-0.981469 -0.136925,-0.380382 -0.205427,-0.806433 -0.205427,-1.27815 0,-0.464081 0.0685029,-0.888181 0.205427,-1.27238 0.136925,-0.384201 0.329025,-0.713308 0.576302,-0.987157 0.247277,-0.27393 0.542091,-0.485046 0.884443,-0.633347 0.342352,-0.148382 0.715177,-0.222574 1.11839,-0.222574 0.403216,0 0.776041,0.0741912 1.11839,0.222574 0.342352,0.148301 0.637167,0.359417 0.884443,0.633347 0.247196,0.273849 0.439296,0.602956 0.576302,0.987157 0.136925,0.384201 0.205427,0.808302 0.205427,1.27238zm-1.10702 0c0,-0.669508 -0.150251,-1.20014 -0.450754,-1.59198 -0.300503,-0.391759 -0.709489,-0.587679 -1.2268,-0.587679 -0.517388,0 -0.926293,0.19592 -1.2268,0.587679 -0.300503,0.39184 -0.450754,0.922473 -0.450754,1.59198 0,0.669508 0.150251,1.20022 0.450754,1.59198 0.300503,0.39184 0.709407,0.58776 1.2268,0.58776 0.517307,0 0.926293,-0.19592 1.2268,-0.58776 0.300503,-0.391759 0.450754,-0.922473 0.450754,-1.59198z"/>
   <path id="_13037391212345678910" class="fil2" d="M71.782 3.71167c0.243458,-0.0608644 0.564926,-0.125467 0.964323,-0.19397 0.399397,-0.0685029 0.861609,-0.102714 1.38655,-0.102714 0.380382,0 0.6999,0.0513569 0.958635,0.154071 0.258653,0.102714 0.475457,0.252965 0.650493,0.450754 0.0532259,-0.0380301 0.136925,-0.091256 0.251015,-0.159759 0.114172,-0.0685029 0.254915,-0.135056 0.422232,-0.199739 0.167397,-0.0646024 0.35381,-0.121729 0.559237,-0.171135 0.205427,-0.0494879 0.426051,-0.0741912 0.66187,-0.0741912 0.456524,0 0.829267,0.0665527 1.11839,0.199739 0.289126,0.133105 0.515438,0.321387 0.679016,0.564844 0.163578,0.243458 0.273849,0.532584 0.330976,0.867297 0.0570451,0.334795 0.0855677,0.699981 0.0855677,1.09556l0 3.33235 -1.06135 0 0 -3.10408c0,-0.349991 -0.0170648,-0.650493 -0.0513569,-0.901508 -0.0342108,-0.251096 -0.0988945,-0.460343 -0.19397,-0.627659 -0.0950752,-0.167397 -0.224443,-0.291076 -0.388021,-0.370956 -0.163578,-0.0798794 -0.374694,-0.119779 -0.633347,-0.119779 -0.357629,0 -0.652444,0.0475376 -0.884443,0.142613 -0.232081,0.0951565 -0.38989,0.180724 -0.473588,0.256784 0.0608644,0.197789 0.106533,0.414674 0.136925,0.650493 0.0304728,0.235819 0.0456686,0.483096 0.0456686,0.741749l0 3.33235 -1.06135 0 0 -3.10408c0,-0.349991 -0.019015,-0.650493 -0.0570451,-0.901508 -0.0380301,-0.251096 -0.104583,-0.460343 -0.199739,-0.627659 -0.0950752,-0.167397 -0.224443,-0.291076 -0.388021,-0.370956 -0.163578,-0.0798794 -0.370875,-0.119779 -0.621889,-0.119779 -0.106533,0 -0.220705,0.00381926 -0.342352,0.0113765 -0.121729,0.00763852 -0.237769,0.017146 -0.348122,0.0285226 -0.110271,0.0114578 -0.211116,0.0247846 -0.302372,0.0399804 -0.0913372,0.0151958 -0.152202,0.0266536 -0.182593,0.0342108l0 5.0099 -1.06135 0 0 -5.7631z"/>
   <path id="_1303739121234567891011" class="fil2" d="M82.8631 8.85849c0,0.205427 -0.0685029,0.384201 -0.205427,0.536403 -0.136925,0.15212 -0.323337,0.228262 -0.559156,0.228262 -0.2359,0 -0.422232,-0.0761414 -0.559237,-0.228262 -0.136925,-0.152202 -0.205427,-0.330976 -0.205427,-0.536403 0,-0.205346 0.0685029,-0.384201 0.205427,-0.536322 0.137006,-0.152202 0.323337,-0.228262 0.559237,-0.228262 0.235819,0 0.422232,0.0760602 0.559156,0.228262 0.136925,0.15212 0.205427,0.330976 0.205427,0.536322z"/>
   <path id="_130373912123456789101112" class="fil2" d="M89.1398 9.30356c-0.243458,0.0608644 -0.564926,0.125548 -0.964323,0.194051 -0.399397,0.0684217 -0.861609,0.102714 -1.38655,0.102714 -0.456524,0 -0.840725,-0.0665527 -1.1526,-0.199739 -0.311961,-0.133105 -0.563057,-0.321387 -0.753207,-0.564844 -0.190232,-0.243458 -0.327156,-0.530715 -0.410855,-0.861609 -0.0836987,-0.330976 -0.125548,-0.698112 -0.125548,-1.10133l0 -3.33226 1.06135 0 0 3.10408c0,0.722734 0.11409,1.24004 0.342352,1.552 0.228262,0.311961 0.612463,0.4679 1.1526,0.4679 0.114172,0 0.232081,-0.00381926 0.35381,-0.0113765 0.121729,-0.00763852 0.235819,-0.017146 0.342352,-0.0286038 0.106533,-0.0113765 0.203477,-0.022753 0.290995,-0.0342108 0.087518,-0.0113765 0.150251,-0.0247033 0.188281,-0.0398991l0 -5.0099 1.06135 0 0 5.76302z"/>
   <path id="_13037391212345678910111213" class="fil2" d="M92.9742 8.71019c0.251015,0 0.473588,-0.00568826 0.667558,-0.017146 0.194051,-0.0113765 0.355679,-0.0323418 0.485046,-0.0627334l0 -1.76889c-0.0760602,-0.0380301 -0.199739,-0.0703719 -0.370875,-0.0970255 -0.171217,-0.0265723 -0.378513,-0.0398991 -0.621971,-0.0398991 -0.159759,0 -0.329025,0.0113765 -0.507799,0.0342108 -0.178855,0.0228343 -0.342433,0.0703719 -0.490734,0.142613 -0.148382,0.0723222 -0.27198,0.171217 -0.370875,0.296765 -0.0989757,0.125548 -0.148382,0.290995 -0.148382,0.496423 0,0.380382 0.121729,0.644805 0.365186,0.793106 0.243458,0.148382 0.574433,0.222574 0.992845,0.222574zm-0.0913372 -5.31804c0.426051,0 0.785549,0.0551761 1.07849,0.165447 0.292864,0.110352 0.528765,0.266292 0.707538,0.4679 0.178774,0.201608 0.306191,0.441328 0.382251,0.718996 0.0761414,0.277668 0.114172,0.583941 0.114172,0.918654l0 3.70891c-0.0913372,0.0151958 -0.218754,0.0361611 -0.382332,0.0627334 -0.163578,0.0266536 -0.34804,0.0513569 -0.553468,0.0741912 -0.205427,0.0228343 -0.42792,0.0437996 -0.667639,0.0628147 -0.239638,0.019015 -0.477408,0.0285226 -0.713227,0.0285226 -0.334714,0 -0.642855,-0.0342921 -0.924342,-0.102714 -0.281488,-0.0685029 -0.524945,-0.176905 -0.730373,-0.325287 -0.205427,-0.148301 -0.365186,-0.344221 -0.479358,-0.587679 -0.11409,-0.243458 -0.171135,-0.536403 -0.171135,-0.878755 0,-0.327156 0.0665527,-0.608644 0.199658,-0.844463 0.133187,-0.235819 0.31383,-0.426051 0.542091,-0.570614 0.228262,-0.144563 0.494554,-0.251096 0.798876,-0.319518 0.304322,-0.0685029 0.62384,-0.102714 0.958553,-0.102714 0.106533,0 0.216885,0.00568826 0.330976,0.017146 0.114172,0.0113765 0.222574,0.0265723 0.325287,0.0455874 0.102714,0.019015 0.192101,0.0361611 0.268161,0.0513569 0.0760602,0.015277 0.129367,0.0266536 0.159759,0.0342921l0 -0.296765c0,-0.174955 -0.019015,-0.34804 -0.0570451,-0.519257 -0.0380301,-0.171135 -0.106533,-0.323337 -0.205427,-0.456442 -0.0988945,-0.133187 -0.23395,-0.239638 -0.405167,-0.319518 -0.171135,-0.0798794 -0.393709,-0.11986 -0.667558,-0.11986 -0.349991,0 -0.656182,0.0247033 -0.918654,0.0741912 -0.262473,0.0494066 -0.458393,0.100763 -0.58776,0.154071l-0.125548 -0.878755c0.137006,-0.0608644 0.365186,-0.119779 0.684785,-0.176905 0.319518,-0.0570451 0.665689,-0.0855677 1.03843,-0.0855677z"/>
  </g>
 </g>
</svg>
